STARTFONT 2.1
FONT -FontForge-Small Bold Pixel7-Book-R-Normal--20-190-75-75-P-68-ISO10646-1
SIZE 19 75 75
FONTBOUNDINGBOX 11 15 0 -3
COMMENT "Generated by fontforge, http://fontforge.sourceforge.net"
COMMENT "Copyright (c) 2013 by Style-7. All rights reserved. http://www.styleseven.com"
STARTPROPERTIES 39
FOUNDRY "FontForge"
FAMILY_NAME "Small Bold Pixel7"
WEIGHT_NAME "Book"
SLANT "R"
SETWIDTH_NAME "Normal"
ADD_STYLE_NAME ""
PIXEL_SIZE 20
POINT_SIZE 190
RESOLUTION_X 75
RESOLUTION_Y 75
SPACING "P"
AVERAGE_WIDTH 68
CHARSET_REGISTRY "ISO10646"
CHARSET_ENCODING "1"
FONTNAME_REGISTRY ""
CHARSET_COLLECTIONS "ISO10646-1"
FONT_NAME "SmallBoldPixel-7"
FACE_NAME "Small Bold Pixel-7"
COPYRIGHT "Copyright (c) 2013 by Style-7. All rights reserved. http://www.styleseven.com"
FONT_VERSION "1.000"
FONT_ASCENT 15
FONT_DESCENT 5
UNDERLINE_POSITION -1
UNDERLINE_THICKNESS 1
X_HEIGHT 7
CAP_HEIGHT 7
RAW_ASCENT 750
RAW_DESCENT 250
NORM_SPACE 7
RELATIVE_WEIGHT 40
RELATIVE_SETWIDTH 50
SUPERSCRIPT_X 0
SUPERSCRIPT_Y 4
SUPERSCRIPT_SIZE 13
SUBSCRIPT_X 0
SUBSCRIPT_Y 0
SUBSCRIPT_SIZE 13
AVG_LOWERCASE_WIDTH 71
AVG_UPPERCASE_WIDTH 71
ENDPROPERTIES
CHARS 220
STARTCHAR space
ENCODING 32
SWIDTH 350 0
DWIDTH 7 0
BBX 1 1 0 0
BITMAP
00
ENDCHAR
STARTCHAR exclam
ENCODING 33
SWIDTH 150 0
DWIDTH 3 0
BBX 2 8 0 0
BITMAP
C0
C0
C0
C0
C0
00
C0
C0
ENDCHAR
STARTCHAR quotedbl
ENCODING 34
SWIDTH 300 0
DWIDTH 6 0
BBX 5 3 0 5
BITMAP
D8
D8
D8
ENDCHAR
STARTCHAR numbersign
ENCODING 35
SWIDTH 400 0
DWIDTH 8 0
BBX 7 8 0 0
BITMAP
6C
FE
FE
6C
6C
FE
FE
6C
ENDCHAR
STARTCHAR dollar
ENCODING 36
SWIDTH 400 0
DWIDTH 8 0
BBX 7 10 0 -1
BITMAP
10
7E
FE
D0
FC
7E
16
FE
FC
10
ENDCHAR
STARTCHAR percent
ENCODING 37
SWIDTH 400 0
DWIDTH 8 0
BBX 7 8 0 0
BITMAP
C2
C6
0C
18
30
60
C6
86
ENDCHAR
STARTCHAR ampersand
ENCODING 38
SWIDTH 450 0
DWIDTH 9 0
BBX 8 8 0 0
BITMAP
78
FC
CC
7B
FF
CC
FF
7B
ENDCHAR
STARTCHAR quotesingle
ENCODING 39
SWIDTH 150 0
DWIDTH 3 0
BBX 2 3 0 5
BITMAP
C0
C0
C0
ENDCHAR
STARTCHAR parenleft
ENCODING 40
SWIDTH 250 0
DWIDTH 5 0
BBX 4 8 0 0
BITMAP
70
F0
C0
C0
C0
C0
F0
70
ENDCHAR
STARTCHAR parenright
ENCODING 41
SWIDTH 250 0
DWIDTH 5 0
BBX 4 8 0 0
BITMAP
E0
F0
30
30
30
30
F0
E0
ENDCHAR
STARTCHAR asterisk
ENCODING 42
SWIDTH 350 0
DWIDTH 7 0
BBX 6 8 0 0
BITMAP
CC
CC
30
FC
FC
30
CC
CC
ENDCHAR
STARTCHAR plus
ENCODING 43
SWIDTH 350 0
DWIDTH 7 0
BBX 6 6 0 1
BITMAP
30
30
FC
FC
30
30
ENDCHAR
STARTCHAR comma
ENCODING 44
SWIDTH 200 0
DWIDTH 4 0
BBX 3 3 0 -1
BITMAP
C0
E0
60
ENDCHAR
STARTCHAR hyphen
ENCODING 45
SWIDTH 350 0
DWIDTH 7 0
BBX 6 2 0 3
BITMAP
FC
FC
ENDCHAR
STARTCHAR period
ENCODING 46
SWIDTH 150 0
DWIDTH 3 0
BBX 2 2 0 0
BITMAP
C0
C0
ENDCHAR
STARTCHAR slash
ENCODING 47
SWIDTH 400 0
DWIDTH 8 0
BBX 7 8 0 0
BITMAP
02
06
0C
18
30
60
C0
80
ENDCHAR
STARTCHAR zero
ENCODING 48
SWIDTH 350 0
DWIDTH 7 0
BBX 6 8 0 0
BITMAP
78
FC
CC
DC
EC
CC
FC
78
ENDCHAR
STARTCHAR one
ENCODING 49
SWIDTH 350 0
DWIDTH 7 0
BBX 6 8 0 0
BITMAP
F0
F0
30
30
30
30
FC
FC
ENDCHAR
STARTCHAR two
ENCODING 50
SWIDTH 350 0
DWIDTH 7 0
BBX 6 8 0 0
BITMAP
F8
FC
0C
7C
F8
C0
FC
FC
ENDCHAR
STARTCHAR three
ENCODING 51
SWIDTH 350 0
DWIDTH 7 0
BBX 6 8 0 0
BITMAP
F8
FC
0C
78
7C
0C
FC
F8
ENDCHAR
STARTCHAR four
ENCODING 52
SWIDTH 350 0
DWIDTH 7 0
BBX 6 8 0 0
BITMAP
CC
CC
CC
FC
FC
0C
0C
0C
ENDCHAR
STARTCHAR five
ENCODING 53
SWIDTH 350 0
DWIDTH 7 0
BBX 6 8 0 0
BITMAP
FC
FC
C0
F8
FC
0C
FC
F8
ENDCHAR
STARTCHAR six
ENCODING 54
SWIDTH 350 0
DWIDTH 7 0
BBX 6 8 0 0
BITMAP
78
F8
C0
F8
FC
CC
FC
78
ENDCHAR
STARTCHAR seven
ENCODING 55
SWIDTH 350 0
DWIDTH 7 0
BBX 6 8 0 0
BITMAP
FC
FC
CC
0C
0C
0C
0C
0C
ENDCHAR
STARTCHAR eight
ENCODING 56
SWIDTH 350 0
DWIDTH 7 0
BBX 6 8 0 0
BITMAP
78
FC
CC
78
FC
CC
FC
78
ENDCHAR
STARTCHAR nine
ENCODING 57
SWIDTH 350 0
DWIDTH 7 0
BBX 6 8 0 0
BITMAP
78
FC
CC
FC
7C
0C
7C
78
ENDCHAR
STARTCHAR colon
ENCODING 58
SWIDTH 150 0
DWIDTH 3 0
BBX 2 6 0 1
BITMAP
C0
C0
00
00
C0
C0
ENDCHAR
STARTCHAR semicolon
ENCODING 59
SWIDTH 200 0
DWIDTH 4 0
BBX 3 8 0 -1
BITMAP
C0
C0
00
00
00
C0
E0
60
ENDCHAR
STARTCHAR less
ENCODING 60
SWIDTH 300 0
DWIDTH 6 0
BBX 5 7 0 0
BITMAP
18
38
70
E0
70
38
18
ENDCHAR
STARTCHAR equal
ENCODING 61
SWIDTH 350 0
DWIDTH 7 0
BBX 6 6 0 1
BITMAP
FC
FC
00
00
FC
FC
ENDCHAR
STARTCHAR greater
ENCODING 62
SWIDTH 300 0
DWIDTH 6 0
BBX 5 7 0 0
BITMAP
C0
E0
70
38
70
E0
C0
ENDCHAR
STARTCHAR question
ENCODING 63
SWIDTH 350 0
DWIDTH 7 0
BBX 6 8 0 0
BITMAP
F8
FC
0C
7C
78
00
60
60
ENDCHAR
STARTCHAR at
ENCODING 64
SWIDTH 350 0
DWIDTH 7 0
BBX 6 8 0 0
BITMAP
78
FC
CC
DC
DC
C0
FC
7C
ENDCHAR
STARTCHAR A
ENCODING 65
SWIDTH 350 0
DWIDTH 7 0
BBX 6 8 0 0
BITMAP
78
FC
CC
CC
FC
FC
CC
CC
ENDCHAR
STARTCHAR B
ENCODING 66
SWIDTH 350 0
DWIDTH 7 0
BBX 6 8 0 0
BITMAP
F8
FC
CC
F8
FC
CC
FC
F8
ENDCHAR
STARTCHAR C
ENCODING 67
SWIDTH 350 0
DWIDTH 7 0
BBX 6 8 0 0
BITMAP
7C
FC
C0
C0
C0
C0
FC
7C
ENDCHAR
STARTCHAR D
ENCODING 68
SWIDTH 350 0
DWIDTH 7 0
BBX 6 8 0 0
BITMAP
F8
FC
CC
CC
CC
CC
FC
F8
ENDCHAR
STARTCHAR E
ENCODING 69
SWIDTH 350 0
DWIDTH 7 0
BBX 6 8 0 0
BITMAP
FC
FC
C0
F8
F8
C0
FC
FC
ENDCHAR
STARTCHAR F
ENCODING 70
SWIDTH 350 0
DWIDTH 7 0
BBX 6 8 0 0
BITMAP
FC
FC
C0
F8
F8
C0
C0
C0
ENDCHAR
STARTCHAR G
ENCODING 71
SWIDTH 350 0
DWIDTH 7 0
BBX 6 8 0 0
BITMAP
7C
FC
C0
DC
DC
CC
FC
78
ENDCHAR
STARTCHAR H
ENCODING 72
SWIDTH 350 0
DWIDTH 7 0
BBX 6 8 0 0
BITMAP
CC
CC
CC
FC
FC
CC
CC
CC
ENDCHAR
STARTCHAR I
ENCODING 73
SWIDTH 350 0
DWIDTH 7 0
BBX 6 8 0 0
BITMAP
FC
FC
30
30
30
30
FC
FC
ENDCHAR
STARTCHAR J
ENCODING 74
SWIDTH 350 0
DWIDTH 7 0
BBX 6 8 0 0
BITMAP
FC
FC
CC
0C
0C
CC
FC
78
ENDCHAR
STARTCHAR K
ENCODING 75
SWIDTH 350 0
DWIDTH 7 0
BBX 6 8 0 0
BITMAP
CC
CC
D8
F0
F0
D8
CC
CC
ENDCHAR
STARTCHAR L
ENCODING 76
SWIDTH 350 0
DWIDTH 7 0
BBX 6 8 0 0
BITMAP
C0
C0
C0
C0
C0
C0
FC
FC
ENDCHAR
STARTCHAR M
ENCODING 77
SWIDTH 350 0
DWIDTH 7 0
BBX 6 8 0 0
BITMAP
84
CC
FC
FC
B4
CC
CC
CC
ENDCHAR
STARTCHAR N
ENCODING 78
SWIDTH 350 0
DWIDTH 7 0
BBX 6 8 0 0
BITMAP
CC
CC
EC
FC
DC
CC
CC
CC
ENDCHAR
STARTCHAR O
ENCODING 79
SWIDTH 350 0
DWIDTH 7 0
BBX 6 8 0 0
BITMAP
78
FC
CC
CC
CC
CC
FC
78
ENDCHAR
STARTCHAR P
ENCODING 80
SWIDTH 350 0
DWIDTH 7 0
BBX 6 8 0 0
BITMAP
F8
FC
CC
FC
F8
C0
C0
C0
ENDCHAR
STARTCHAR Q
ENCODING 81
SWIDTH 350 0
DWIDTH 7 0
BBX 6 8 0 0
BITMAP
78
FC
CC
CC
CC
DC
FC
7C
ENDCHAR
STARTCHAR R
ENCODING 82
SWIDTH 350 0
DWIDTH 7 0
BBX 6 8 0 0
BITMAP
F8
FC
CC
FC
F8
D8
CC
CC
ENDCHAR
STARTCHAR S
ENCODING 83
SWIDTH 350 0
DWIDTH 7 0
BBX 6 8 0 0
BITMAP
7C
FC
C0
F8
7C
0C
FC
F8
ENDCHAR
STARTCHAR T
ENCODING 84
SWIDTH 350 0
DWIDTH 7 0
BBX 6 8 0 0
BITMAP
FC
FC
30
30
30
30
30
30
ENDCHAR
STARTCHAR U
ENCODING 85
SWIDTH 350 0
DWIDTH 7 0
BBX 6 8 0 0
BITMAP
CC
CC
CC
CC
CC
CC
FC
78
ENDCHAR
STARTCHAR V
ENCODING 86
SWIDTH 350 0
DWIDTH 7 0
BBX 6 8 0 0
BITMAP
CC
CC
CC
CC
CC
CC
78
30
ENDCHAR
STARTCHAR W
ENCODING 87
SWIDTH 350 0
DWIDTH 7 0
BBX 6 8 0 0
BITMAP
CC
CC
84
B4
B4
B4
FC
78
ENDCHAR
STARTCHAR X
ENCODING 88
SWIDTH 350 0
DWIDTH 7 0
BBX 6 8 0 0
BITMAP
CC
CC
78
30
30
78
CC
CC
ENDCHAR
STARTCHAR Y
ENCODING 89
SWIDTH 350 0
DWIDTH 7 0
BBX 6 8 0 0
BITMAP
CC
CC
78
30
30
30
30
30
ENDCHAR
STARTCHAR Z
ENCODING 90
SWIDTH 350 0
DWIDTH 7 0
BBX 6 8 0 0
BITMAP
FC
FC
1C
38
70
E0
FC
FC
ENDCHAR
STARTCHAR bracketleft
ENCODING 91
SWIDTH 250 0
DWIDTH 5 0
BBX 4 8 0 0
BITMAP
F0
F0
C0
C0
C0
C0
F0
F0
ENDCHAR
STARTCHAR backslash
ENCODING 92
SWIDTH 400 0
DWIDTH 8 0
BBX 7 8 0 0
BITMAP
80
C0
60
30
18
0C
06
02
ENDCHAR
STARTCHAR bracketright
ENCODING 93
SWIDTH 250 0
DWIDTH 5 0
BBX 4 8 0 0
BITMAP
F0
F0
30
30
30
30
F0
F0
ENDCHAR
STARTCHAR asciicircum
ENCODING 94
SWIDTH 300 0
DWIDTH 6 0
BBX 5 5 0 1
BITMAP
20
70
F8
D8
88
ENDCHAR
STARTCHAR underscore
ENCODING 95
SWIDTH 350 0
DWIDTH 7 0
BBX 6 2 0 0
BITMAP
FC
FC
ENDCHAR
STARTCHAR grave
ENCODING 96
SWIDTH 200 0
DWIDTH 4 0
BBX 3 3 0 5
BITMAP
C0
E0
60
ENDCHAR
STARTCHAR a
ENCODING 97
SWIDTH 350 0
DWIDTH 7 0
BBX 6 8 0 0
BITMAP
78
FC
CC
CC
FC
FC
CC
CC
ENDCHAR
STARTCHAR b
ENCODING 98
SWIDTH 350 0
DWIDTH 7 0
BBX 6 8 0 0
BITMAP
F8
FC
CC
F8
FC
CC
FC
F8
ENDCHAR
STARTCHAR c
ENCODING 99
SWIDTH 350 0
DWIDTH 7 0
BBX 6 8 0 0
BITMAP
7C
FC
C0
C0
C0
C0
FC
7C
ENDCHAR
STARTCHAR d
ENCODING 100
SWIDTH 350 0
DWIDTH 7 0
BBX 6 8 0 0
BITMAP
F8
FC
CC
CC
CC
CC
FC
F8
ENDCHAR
STARTCHAR e
ENCODING 101
SWIDTH 350 0
DWIDTH 7 0
BBX 6 8 0 0
BITMAP
FC
FC
C0
F8
F8
C0
FC
FC
ENDCHAR
STARTCHAR f
ENCODING 102
SWIDTH 350 0
DWIDTH 7 0
BBX 6 8 0 0
BITMAP
FC
FC
C0
F8
F8
C0
C0
C0
ENDCHAR
STARTCHAR g
ENCODING 103
SWIDTH 350 0
DWIDTH 7 0
BBX 6 8 0 0
BITMAP
7C
FC
C0
DC
DC
CC
FC
78
ENDCHAR
STARTCHAR h
ENCODING 104
SWIDTH 350 0
DWIDTH 7 0
BBX 6 8 0 0
BITMAP
CC
CC
CC
FC
FC
CC
CC
CC
ENDCHAR
STARTCHAR i
ENCODING 105
SWIDTH 350 0
DWIDTH 7 0
BBX 6 8 0 0
BITMAP
FC
FC
30
30
30
30
FC
FC
ENDCHAR
STARTCHAR j
ENCODING 106
SWIDTH 350 0
DWIDTH 7 0
BBX 6 8 0 0
BITMAP
FC
FC
CC
0C
0C
CC
FC
78
ENDCHAR
STARTCHAR k
ENCODING 107
SWIDTH 350 0
DWIDTH 7 0
BBX 6 8 0 0
BITMAP
CC
CC
D8
F0
F0
D8
CC
CC
ENDCHAR
STARTCHAR l
ENCODING 108
SWIDTH 350 0
DWIDTH 7 0
BBX 6 8 0 0
BITMAP
C0
C0
C0
C0
C0
C0
FC
FC
ENDCHAR
STARTCHAR m
ENCODING 109
SWIDTH 350 0
DWIDTH 7 0
BBX 6 8 0 0
BITMAP
84
CC
FC
FC
B4
CC
CC
CC
ENDCHAR
STARTCHAR n
ENCODING 110
SWIDTH 350 0
DWIDTH 7 0
BBX 6 8 0 0
BITMAP
CC
CC
EC
FC
DC
CC
CC
CC
ENDCHAR
STARTCHAR o
ENCODING 111
SWIDTH 350 0
DWIDTH 7 0
BBX 6 8 0 0
BITMAP
78
FC
CC
CC
CC
CC
FC
78
ENDCHAR
STARTCHAR p
ENCODING 112
SWIDTH 350 0
DWIDTH 7 0
BBX 6 8 0 0
BITMAP
F8
FC
CC
FC
F8
C0
C0
C0
ENDCHAR
STARTCHAR q
ENCODING 113
SWIDTH 350 0
DWIDTH 7 0
BBX 6 8 0 0
BITMAP
78
FC
CC
CC
CC
DC
FC
7C
ENDCHAR
STARTCHAR r
ENCODING 114
SWIDTH 350 0
DWIDTH 7 0
BBX 6 8 0 0
BITMAP
F8
FC
CC
FC
F8
D8
CC
CC
ENDCHAR
STARTCHAR s
ENCODING 115
SWIDTH 350 0
DWIDTH 7 0
BBX 6 8 0 0
BITMAP
7C
FC
C0
F8
7C
0C
FC
F8
ENDCHAR
STARTCHAR t
ENCODING 116
SWIDTH 350 0
DWIDTH 7 0
BBX 6 8 0 0
BITMAP
FC
FC
30
30
30
30
30
30
ENDCHAR
STARTCHAR u
ENCODING 117
SWIDTH 350 0
DWIDTH 7 0
BBX 6 8 0 0
BITMAP
CC
CC
CC
CC
CC
CC
FC
78
ENDCHAR
STARTCHAR v
ENCODING 118
SWIDTH 350 0
DWIDTH 7 0
BBX 6 8 0 0
BITMAP
CC
CC
CC
CC
CC
CC
78
30
ENDCHAR
STARTCHAR w
ENCODING 119
SWIDTH 350 0
DWIDTH 7 0
BBX 6 8 0 0
BITMAP
CC
CC
84
B4
B4
B4
FC
78
ENDCHAR
STARTCHAR x
ENCODING 120
SWIDTH 350 0
DWIDTH 7 0
BBX 6 8 0 0
BITMAP
CC
CC
78
30
30
78
CC
CC
ENDCHAR
STARTCHAR y
ENCODING 121
SWIDTH 350 0
DWIDTH 7 0
BBX 6 8 0 0
BITMAP
CC
CC
78
30
30
30
30
30
ENDCHAR
STARTCHAR z
ENCODING 122
SWIDTH 350 0
DWIDTH 7 0
BBX 6 8 0 0
BITMAP
FC
FC
1C
38
70
E0
FC
FC
ENDCHAR
STARTCHAR braceleft
ENCODING 123
SWIDTH 300 0
DWIDTH 6 0
BBX 5 8 0 0
BITMAP
78
78
60
E0
E0
60
78
78
ENDCHAR
STARTCHAR bar
ENCODING 124
SWIDTH 150 0
DWIDTH 3 0
BBX 2 8 0 0
BITMAP
C0
C0
C0
C0
C0
C0
C0
C0
ENDCHAR
STARTCHAR braceright
ENCODING 125
SWIDTH 300 0
DWIDTH 6 0
BBX 5 8 0 0
BITMAP
F0
F0
30
38
38
30
F0
F0
ENDCHAR
STARTCHAR asciitilde
ENCODING 126
SWIDTH 400 0
DWIDTH 8 0
BBX 7 3 0 2
BITMAP
76
FE
DC
ENDCHAR
STARTCHAR space.dup1
ENCODING 160
SWIDTH 350 0
DWIDTH 7 0
BBX 1 1 0 0
BITMAP
00
ENDCHAR
STARTCHAR exclamdown
ENCODING 161
SWIDTH 150 0
DWIDTH 3 0
BBX 2 8 0 0
BITMAP
C0
C0
00
C0
C0
C0
C0
C0
ENDCHAR
STARTCHAR cent
ENCODING 162
SWIDTH 400 0
DWIDTH 8 0
BBX 7 10 0 -1
BITMAP
08
7E
FE
C8
C8
C8
C8
FE
7E
08
ENDCHAR
STARTCHAR sterling
ENCODING 163
SWIDTH 300 0
DWIDTH 6 0
BBX 5 8 0 0
BITMAP
38
78
60
F0
F0
60
F8
F8
ENDCHAR
STARTCHAR currency
ENCODING 164
SWIDTH 400 0
DWIDTH 8 0
BBX 7 7 0 0
BITMAP
C6
BA
7C
6C
7C
BA
C6
ENDCHAR
STARTCHAR yen
ENCODING 165
SWIDTH 350 0
DWIDTH 7 0
BBX 6 8 0 0
BITMAP
CC
CC
78
30
FC
30
FC
30
ENDCHAR
STARTCHAR brokenbar
ENCODING 166
SWIDTH 150 0
DWIDTH 3 0
BBX 2 8 0 0
BITMAP
C0
C0
C0
00
00
C0
C0
C0
ENDCHAR
STARTCHAR section
ENCODING 167
SWIDTH 350 0
DWIDTH 7 0
BBX 6 9 0 0
BITMAP
7C
FC
C0
F8
CC
7C
0C
FC
F8
ENDCHAR
STARTCHAR dieresis
ENCODING 168
SWIDTH 300 0
DWIDTH 6 0
BBX 5 2 0 6
BITMAP
D8
D8
ENDCHAR
STARTCHAR copyright
ENCODING 169
SWIDTH 500 0
DWIDTH 10 0
BBX 9 10 0 0
BITMAP
7F00
FF80
C180
DD80
D180
D180
DD80
C180
FF80
7F00
ENDCHAR
STARTCHAR ordfeminine
ENCODING 170
SWIDTH 350 0
DWIDTH 7 0
BBX 6 8 0 0
BITMAP
F8
FC
0C
7C
FC
CC
FC
7C
ENDCHAR
STARTCHAR guillemotleft
ENCODING 171
SWIDTH 450 0
DWIDTH 9 0
BBX 8 7 0 0
BITMAP
11
33
66
CC
66
33
11
ENDCHAR
STARTCHAR logicalnot
ENCODING 172
SWIDTH 350 0
DWIDTH 7 0
BBX 6 4 0 4
BITMAP
FC
FC
0C
0C
ENDCHAR
STARTCHAR uni00AD
ENCODING 173
SWIDTH 300 0
DWIDTH 6 0
BBX 5 2 0 3
BITMAP
F8
F8
ENDCHAR
STARTCHAR registered
ENCODING 174
SWIDTH 500 0
DWIDTH 10 0
BBX 9 10 0 0
BITMAP
7F00
FF80
C180
D980
D580
D980
D580
C180
FF80
7F00
ENDCHAR
STARTCHAR degree
ENCODING 176
SWIDTH 300 0
DWIDTH 6 0
BBX 5 5 0 3
BITMAP
70
F8
D8
F8
70
ENDCHAR
STARTCHAR plusminus
ENCODING 177
SWIDTH 350 0
DWIDTH 7 0
BBX 6 8 0 0
BITMAP
30
30
FC
FC
30
30
FC
FC
ENDCHAR
STARTCHAR twosuperior
ENCODING 178
SWIDTH 250 0
DWIDTH 5 0
BBX 4 5 0 3
BITMAP
E0
10
60
80
F0
ENDCHAR
STARTCHAR threesuperior
ENCODING 179
SWIDTH 250 0
DWIDTH 5 0
BBX 4 5 0 3
BITMAP
E0
10
60
10
E0
ENDCHAR
STARTCHAR acute
ENCODING 180
SWIDTH 200 0
DWIDTH 4 0
BBX 3 3 0 5
BITMAP
60
E0
C0
ENDCHAR
STARTCHAR mu
ENCODING 181
SWIDTH 400 0
DWIDTH 8 0
BBX 7 8 0 -1
BITMAP
C6
C6
C6
C6
EE
FE
D6
C0
ENDCHAR
STARTCHAR paragraph
ENCODING 182
SWIDTH 400 0
DWIDTH 8 0
BBX 7 8 0 0
BITMAP
FE
FE
EC
6C
6C
6C
6C
6C
ENDCHAR
STARTCHAR periodcentered
ENCODING 183
SWIDTH 150 0
DWIDTH 3 0
BBX 2 2 0 3
BITMAP
C0
C0
ENDCHAR
STARTCHAR cedilla
ENCODING 184
SWIDTH 250 0
DWIDTH 5 0
BBX 4 3 0 -3
BITMAP
30
F0
E0
ENDCHAR
STARTCHAR onesuperior
ENCODING 185
SWIDTH 200 0
DWIDTH 4 0
BBX 3 5 0 3
BITMAP
40
C0
40
40
E0
ENDCHAR
STARTCHAR ordmasculine
ENCODING 186
SWIDTH 250 0
DWIDTH 5 0
BBX 4 5 0 3
BITMAP
60
90
90
90
60
ENDCHAR
STARTCHAR guillemotright
ENCODING 187
SWIDTH 450 0
DWIDTH 9 0
BBX 8 7 0 0
BITMAP
88
CC
66
33
66
CC
88
ENDCHAR
STARTCHAR onequarter
ENCODING 188
SWIDTH 600 0
DWIDTH 12 0
BBX 11 12 0 -2
BITMAP
4000
C000
4080
4180
E300
0600
0C00
1920
3120
21E0
0020
0020
ENDCHAR
STARTCHAR onehalf
ENCODING 189
SWIDTH 600 0
DWIDTH 12 0
BBX 11 12 0 -2
BITMAP
4000
C000
4080
4180
E300
0600
0C00
19C0
3020
20E0
0100
01E0
ENDCHAR
STARTCHAR threequarters
ENCODING 190
SWIDTH 600 0
DWIDTH 12 0
BBX 11 12 0 -2
BITMAP
E000
1000
6080
1180
E300
0600
0C00
1920
3120
21E0
0020
0020
ENDCHAR
STARTCHAR questiondown
ENCODING 191
SWIDTH 350 0
DWIDTH 7 0
BBX 6 8 0 0
BITMAP
18
18
00
78
F8
C0
FC
7C
ENDCHAR
STARTCHAR Agrave
ENCODING 192
SWIDTH 350 0
DWIDTH 7 0
BBX 6 11 0 0
BITMAP
60
30
00
78
FC
CC
CC
FC
FC
CC
CC
ENDCHAR
STARTCHAR Aacute
ENCODING 193
SWIDTH 350 0
DWIDTH 7 0
BBX 6 11 0 0
BITMAP
18
30
00
78
FC
CC
CC
FC
FC
CC
CC
ENDCHAR
STARTCHAR Acircumflex
ENCODING 194
SWIDTH 350 0
DWIDTH 7 0
BBX 6 12 0 0
BITMAP
78
FC
CC
00
78
FC
CC
CC
FC
FC
CC
CC
ENDCHAR
STARTCHAR Atilde
ENCODING 195
SWIDTH 350 0
DWIDTH 7 0
BBX 6 11 0 0
BITMAP
74
5C
00
78
FC
CC
CC
FC
FC
CC
CC
ENDCHAR
STARTCHAR Adieresis
ENCODING 196
SWIDTH 350 0
DWIDTH 7 0
BBX 6 11 0 0
BITMAP
CC
CC
00
78
FC
CC
CC
FC
FC
CC
CC
ENDCHAR
STARTCHAR Aring
ENCODING 197
SWIDTH 350 0
DWIDTH 7 0
BBX 6 10 0 0
BITMAP
30
48
78
FC
CC
CC
FC
FC
CC
CC
ENDCHAR
STARTCHAR AE
ENCODING 198
SWIDTH 550 0
DWIDTH 11 0
BBX 10 8 0 0
BITMAP
7FC0
FFC0
CC00
FF00
FF00
CC00
CFC0
CFC0
ENDCHAR
STARTCHAR Ccedilla
ENCODING 199
SWIDTH 350 0
DWIDTH 7 0
BBX 6 11 0 -3
BITMAP
7C
FC
C0
C0
C0
C0
FC
7C
18
78
70
ENDCHAR
STARTCHAR Egrave
ENCODING 200
SWIDTH 350 0
DWIDTH 7 0
BBX 6 11 0 0
BITMAP
60
30
00
FC
FC
C0
F8
F8
C0
FC
FC
ENDCHAR
STARTCHAR Eacute
ENCODING 201
SWIDTH 350 0
DWIDTH 7 0
BBX 6 11 0 0
BITMAP
18
30
00
FC
FC
C0
F8
F8
C0
FC
FC
ENDCHAR
STARTCHAR Ecircumflex
ENCODING 202
SWIDTH 350 0
DWIDTH 7 0
BBX 6 11 0 0
BITMAP
78
CC
00
FC
FC
C0
F8
F8
C0
FC
FC
ENDCHAR
STARTCHAR Edieresis
ENCODING 203
SWIDTH 350 0
DWIDTH 7 0
BBX 6 11 0 0
BITMAP
CC
CC
00
FC
FC
C0
F8
F8
C0
FC
FC
ENDCHAR
STARTCHAR Igrave
ENCODING 204
SWIDTH 350 0
DWIDTH 7 0
BBX 6 11 0 0
BITMAP
60
30
00
FC
FC
30
30
30
30
FC
FC
ENDCHAR
STARTCHAR Iacute
ENCODING 205
SWIDTH 350 0
DWIDTH 7 0
BBX 6 11 0 0
BITMAP
18
30
00
FC
FC
30
30
30
30
FC
FC
ENDCHAR
STARTCHAR Icircumflex
ENCODING 206
SWIDTH 350 0
DWIDTH 7 0
BBX 6 11 0 0
BITMAP
78
CC
00
FC
FC
30
30
30
30
FC
FC
ENDCHAR
STARTCHAR Idieresis
ENCODING 207
SWIDTH 350 0
DWIDTH 7 0
BBX 6 11 0 0
BITMAP
CC
CC
00
FC
FC
30
30
30
30
FC
FC
ENDCHAR
STARTCHAR Eth
ENCODING 208
SWIDTH 400 0
DWIDTH 8 0
BBX 7 8 0 0
BITMAP
7C
7E
66
F6
F6
66
7E
7C
ENDCHAR
STARTCHAR Ntilde
ENCODING 209
SWIDTH 350 0
DWIDTH 7 0
BBX 6 11 0 0
BITMAP
74
5C
00
CC
CC
EC
FC
DC
CC
CC
CC
ENDCHAR
STARTCHAR Ograve
ENCODING 210
SWIDTH 350 0
DWIDTH 7 0
BBX 6 11 0 0
BITMAP
60
30
00
78
FC
CC
CC
CC
CC
FC
78
ENDCHAR
STARTCHAR Oacute
ENCODING 211
SWIDTH 350 0
DWIDTH 7 0
BBX 6 11 0 0
BITMAP
18
30
00
78
FC
CC
CC
CC
CC
FC
78
ENDCHAR
STARTCHAR Ocircumflex
ENCODING 212
SWIDTH 350 0
DWIDTH 7 0
BBX 6 11 0 0
BITMAP
78
CC
00
78
FC
CC
CC
CC
CC
FC
78
ENDCHAR
STARTCHAR Otilde
ENCODING 213
SWIDTH 350 0
DWIDTH 7 0
BBX 6 11 0 0
BITMAP
74
5C
00
78
FC
CC
CC
CC
CC
FC
78
ENDCHAR
STARTCHAR Odieresis
ENCODING 214
SWIDTH 350 0
DWIDTH 7 0
BBX 6 11 0 0
BITMAP
CC
CC
00
78
FC
CC
CC
CC
CC
FC
78
ENDCHAR
STARTCHAR multiply
ENCODING 215
SWIDTH 300 0
DWIDTH 6 0
BBX 5 5 0 1
BITMAP
D8
F8
70
F8
D8
ENDCHAR
STARTCHAR Oslash
ENCODING 216
SWIDTH 350 0
DWIDTH 7 0
BBX 6 8 0 0
BITMAP
78
FC
CC
DC
EC
CC
FC
78
ENDCHAR
STARTCHAR Ugrave
ENCODING 217
SWIDTH 350 0
DWIDTH 7 0
BBX 6 11 0 0
BITMAP
60
30
00
CC
CC
CC
CC
CC
CC
FC
78
ENDCHAR
STARTCHAR Uacute
ENCODING 218
SWIDTH 350 0
DWIDTH 7 0
BBX 6 11 0 0
BITMAP
18
30
00
CC
CC
CC
CC
CC
CC
FC
78
ENDCHAR
STARTCHAR Ucircumflex
ENCODING 219
SWIDTH 350 0
DWIDTH 7 0
BBX 6 11 0 0
BITMAP
78
CC
00
CC
CC
CC
CC
CC
CC
FC
78
ENDCHAR
STARTCHAR Udieresis
ENCODING 220
SWIDTH 350 0
DWIDTH 7 0
BBX 6 11 0 0
BITMAP
CC
CC
00
CC
CC
CC
CC
CC
CC
FC
78
ENDCHAR
STARTCHAR Yacute
ENCODING 221
SWIDTH 350 0
DWIDTH 7 0
BBX 6 11 0 0
BITMAP
18
30
00
CC
CC
78
30
30
30
30
30
ENDCHAR
STARTCHAR Thorn
ENCODING 222
SWIDTH 350 0
DWIDTH 7 0
BBX 6 8 0 0
BITMAP
C0
F8
FC
CC
CC
FC
F8
C0
ENDCHAR
STARTCHAR germandbls
ENCODING 223
SWIDTH 350 0
DWIDTH 7 0
BBX 6 8 0 0
BITMAP
78
FC
CC
F8
FC
CC
DC
D8
ENDCHAR
STARTCHAR agrave
ENCODING 224
SWIDTH 350 0
DWIDTH 7 0
BBX 6 11 0 0
BITMAP
60
30
00
78
FC
CC
CC
FC
FC
CC
CC
ENDCHAR
STARTCHAR aacute
ENCODING 225
SWIDTH 350 0
DWIDTH 7 0
BBX 6 11 0 0
BITMAP
18
30
00
78
FC
CC
CC
FC
FC
CC
CC
ENDCHAR
STARTCHAR acircumflex
ENCODING 226
SWIDTH 350 0
DWIDTH 7 0
BBX 6 12 0 0
BITMAP
78
FC
CC
00
78
FC
CC
CC
FC
FC
CC
CC
ENDCHAR
STARTCHAR atilde
ENCODING 227
SWIDTH 350 0
DWIDTH 7 0
BBX 6 11 0 0
BITMAP
74
5C
00
78
FC
CC
CC
FC
FC
CC
CC
ENDCHAR
STARTCHAR adieresis
ENCODING 228
SWIDTH 350 0
DWIDTH 7 0
BBX 6 11 0 0
BITMAP
CC
CC
00
78
FC
CC
CC
FC
FC
CC
CC
ENDCHAR
STARTCHAR aring
ENCODING 229
SWIDTH 350 0
DWIDTH 7 0
BBX 6 10 0 0
BITMAP
30
48
78
FC
CC
CC
FC
FC
CC
CC
ENDCHAR
STARTCHAR ae
ENCODING 230
SWIDTH 550 0
DWIDTH 11 0
BBX 10 8 0 0
BITMAP
7FC0
FFC0
CC00
FF00
FF00
CC00
CFC0
CFC0
ENDCHAR
STARTCHAR ccedilla
ENCODING 231
SWIDTH 350 0
DWIDTH 7 0
BBX 6 11 0 -3
BITMAP
7C
FC
C0
C0
C0
C0
FC
7C
18
78
70
ENDCHAR
STARTCHAR egrave
ENCODING 232
SWIDTH 350 0
DWIDTH 7 0
BBX 6 11 0 0
BITMAP
60
30
00
FC
FC
C0
F8
F8
C0
FC
FC
ENDCHAR
STARTCHAR eacute
ENCODING 233
SWIDTH 350 0
DWIDTH 7 0
BBX 6 11 0 0
BITMAP
18
30
00
FC
FC
C0
F8
F8
C0
FC
FC
ENDCHAR
STARTCHAR ecircumflex
ENCODING 234
SWIDTH 350 0
DWIDTH 7 0
BBX 6 11 0 0
BITMAP
78
CC
00
FC
FC
C0
F8
F8
C0
FC
FC
ENDCHAR
STARTCHAR edieresis
ENCODING 235
SWIDTH 350 0
DWIDTH 7 0
BBX 6 11 0 0
BITMAP
CC
CC
00
FC
FC
C0
F8
F8
C0
FC
FC
ENDCHAR
STARTCHAR igrave
ENCODING 236
SWIDTH 350 0
DWIDTH 7 0
BBX 6 11 0 0
BITMAP
60
30
00
FC
FC
30
30
30
30
FC
FC
ENDCHAR
STARTCHAR iacute
ENCODING 237
SWIDTH 350 0
DWIDTH 7 0
BBX 6 11 0 0
BITMAP
18
30
00
FC
FC
30
30
30
30
FC
FC
ENDCHAR
STARTCHAR icircumflex
ENCODING 238
SWIDTH 350 0
DWIDTH 7 0
BBX 6 11 0 0
BITMAP
78
CC
00
FC
FC
30
30
30
30
FC
FC
ENDCHAR
STARTCHAR idieresis
ENCODING 239
SWIDTH 350 0
DWIDTH 7 0
BBX 6 11 0 0
BITMAP
CC
CC
00
FC
FC
30
30
30
30
FC
FC
ENDCHAR
STARTCHAR eth
ENCODING 240
SWIDTH 400 0
DWIDTH 8 0
BBX 7 8 0 0
BITMAP
7C
7E
66
F6
F6
66
7E
7C
ENDCHAR
STARTCHAR ntilde
ENCODING 241
SWIDTH 350 0
DWIDTH 7 0
BBX 6 11 0 0
BITMAP
74
5C
00
CC
CC
EC
FC
DC
CC
CC
CC
ENDCHAR
STARTCHAR ograve
ENCODING 242
SWIDTH 350 0
DWIDTH 7 0
BBX 6 11 0 0
BITMAP
60
30
00
78
FC
CC
CC
CC
CC
FC
78
ENDCHAR
STARTCHAR oacute
ENCODING 243
SWIDTH 350 0
DWIDTH 7 0
BBX 6 11 0 0
BITMAP
18
30
00
78
FC
CC
CC
CC
CC
FC
78
ENDCHAR
STARTCHAR ocircumflex
ENCODING 244
SWIDTH 350 0
DWIDTH 7 0
BBX 6 11 0 0
BITMAP
78
CC
00
78
FC
CC
CC
CC
CC
FC
78
ENDCHAR
STARTCHAR otilde
ENCODING 245
SWIDTH 350 0
DWIDTH 7 0
BBX 6 11 0 0
BITMAP
74
5C
00
78
FC
CC
CC
CC
CC
FC
78
ENDCHAR
STARTCHAR odieresis
ENCODING 246
SWIDTH 350 0
DWIDTH 7 0
BBX 6 11 0 0
BITMAP
CC
CC
00
78
FC
CC
CC
CC
CC
FC
78
ENDCHAR
STARTCHAR divide
ENCODING 247
SWIDTH 350 0
DWIDTH 7 0
BBX 6 8 0 0
BITMAP
30
30
00
FC
FC
00
30
30
ENDCHAR
STARTCHAR oslash
ENCODING 248
SWIDTH 350 0
DWIDTH 7 0
BBX 6 8 0 0
BITMAP
78
FC
CC
DC
EC
CC
FC
78
ENDCHAR
STARTCHAR ugrave
ENCODING 249
SWIDTH 350 0
DWIDTH 7 0
BBX 6 11 0 0
BITMAP
60
30
00
CC
CC
CC
CC
CC
CC
FC
78
ENDCHAR
STARTCHAR uacute
ENCODING 250
SWIDTH 350 0
DWIDTH 7 0
BBX 6 11 0 0
BITMAP
18
30
00
CC
CC
CC
CC
CC
CC
FC
78
ENDCHAR
STARTCHAR ucircumflex
ENCODING 251
SWIDTH 350 0
DWIDTH 7 0
BBX 6 11 0 0
BITMAP
78
CC
00
CC
CC
CC
CC
CC
CC
FC
78
ENDCHAR
STARTCHAR udieresis
ENCODING 252
SWIDTH 350 0
DWIDTH 7 0
BBX 6 11 0 0
BITMAP
CC
CC
00
CC
CC
CC
CC
CC
CC
FC
78
ENDCHAR
STARTCHAR yacute
ENCODING 253
SWIDTH 350 0
DWIDTH 7 0
BBX 6 11 0 0
BITMAP
18
30
00
CC
CC
78
30
30
30
30
30
ENDCHAR
STARTCHAR thorn
ENCODING 254
SWIDTH 350 0
DWIDTH 7 0
BBX 6 8 0 0
BITMAP
C0
F8
FC
CC
CC
FC
F8
C0
ENDCHAR
STARTCHAR ydieresis
ENCODING 255
SWIDTH 350 0
DWIDTH 7 0
BBX 6 11 0 0
BITMAP
CC
CC
00
CC
CC
78
30
30
30
30
30
ENDCHAR
STARTCHAR OE
ENCODING 338
SWIDTH 550 0
DWIDTH 11 0
BBX 10 8 0 0
BITMAP
7FC0
FFC0
CC00
CF00
CF00
CC00
FFC0
7FC0
ENDCHAR
STARTCHAR oe
ENCODING 339
SWIDTH 550 0
DWIDTH 11 0
BBX 10 8 0 0
BITMAP
7FC0
FFC0
CC00
CF00
CF00
CC00
FFC0
7FC0
ENDCHAR
STARTCHAR Scaron
ENCODING 352
SWIDTH 350 0
DWIDTH 7 0
BBX 6 12 0 0
BITMAP
48
78
30
00
7C
FC
C0
F8
7C
0C
FC
F8
ENDCHAR
STARTCHAR scaron
ENCODING 353
SWIDTH 350 0
DWIDTH 7 0
BBX 6 12 0 0
BITMAP
48
78
30
00
7C
FC
C0
F8
7C
0C
FC
F8
ENDCHAR
STARTCHAR Ydieresis
ENCODING 376
SWIDTH 350 0
DWIDTH 7 0
BBX 6 11 0 0
BITMAP
CC
CC
00
CC
CC
78
30
30
30
30
30
ENDCHAR
STARTCHAR Zcaron
ENCODING 381
SWIDTH 350 0
DWIDTH 7 0
BBX 6 12 0 0
BITMAP
48
78
30
00
FC
FC
1C
38
70
E0
FC
FC
ENDCHAR
STARTCHAR zcaron
ENCODING 382
SWIDTH 350 0
DWIDTH 7 0
BBX 6 12 0 0
BITMAP
48
78
30
00
FC
FC
1C
38
70
E0
FC
FC
ENDCHAR
STARTCHAR florin
ENCODING 402
SWIDTH 300 0
DWIDTH 6 0
BBX 5 10 0 -2
BITMAP
38
78
60
F0
F0
60
60
60
E0
C0
ENDCHAR
STARTCHAR circumflex
ENCODING 710
SWIDTH 300 0
DWIDTH 6 0
BBX 5 4 0 4
BITMAP
20
70
F8
D8
ENDCHAR
STARTCHAR tilde
ENCODING 732
SWIDTH 400 0
DWIDTH 8 0
BBX 7 3 0 5
BITMAP
76
FE
DC
ENDCHAR
STARTCHAR endash
ENCODING 8211
SWIDTH 350 0
DWIDTH 7 0
BBX 6 2 0 3
BITMAP
FC
FC
ENDCHAR
STARTCHAR emdash
ENCODING 8212
SWIDTH 400 0
DWIDTH 8 0
BBX 7 2 0 3
BITMAP
FE
FE
ENDCHAR
STARTCHAR quoteleft
ENCODING 8216
SWIDTH 200 0
DWIDTH 4 0
BBX 3 3 0 6
BITMAP
C0
E0
60
ENDCHAR
STARTCHAR quoteright
ENCODING 8217
SWIDTH 200 0
DWIDTH 4 0
BBX 3 3 0 5
BITMAP
C0
E0
60
ENDCHAR
STARTCHAR quotesinglbase
ENCODING 8218
SWIDTH 200 0
DWIDTH 4 0
BBX 3 3 0 -1
BITMAP
C0
E0
60
ENDCHAR
STARTCHAR quotedblleft
ENCODING 8220
SWIDTH 400 0
DWIDTH 8 0
BBX 7 3 0 6
BITMAP
CC
EE
66
ENDCHAR
STARTCHAR quotedblright
ENCODING 8221
SWIDTH 400 0
DWIDTH 8 0
BBX 7 3 0 5
BITMAP
CC
EE
66
ENDCHAR
STARTCHAR quotedblbase
ENCODING 8222
SWIDTH 400 0
DWIDTH 8 0
BBX 7 3 0 -1
BITMAP
CC
EE
66
ENDCHAR
STARTCHAR dagger
ENCODING 8224
SWIDTH 350 0
DWIDTH 7 0
BBX 6 8 0 0
BITMAP
30
FC
FC
30
30
30
30
30
ENDCHAR
STARTCHAR daggerdbl
ENCODING 8225
SWIDTH 350 0
DWIDTH 7 0
BBX 6 8 0 0
BITMAP
30
FC
FC
30
30
FC
FC
30
ENDCHAR
STARTCHAR bullet
ENCODING 8226
SWIDTH 200 0
DWIDTH 4 0
BBX 3 3 0 2
BITMAP
E0
E0
E0
ENDCHAR
STARTCHAR ellipsis
ENCODING 8230
SWIDTH 450 0
DWIDTH 9 0
BBX 8 2 0 0
BITMAP
DB
DB
ENDCHAR
STARTCHAR perthousand
ENCODING 8240
SWIDTH 450 0
DWIDTH 9 0
BBX 8 8 0 0
BITMAP
C2
C6
0C
18
30
60
DB
9B
ENDCHAR
STARTCHAR guilsinglleft
ENCODING 8249
SWIDTH 300 0
DWIDTH 6 0
BBX 5 7 0 0
BITMAP
18
38
70
E0
70
38
18
ENDCHAR
STARTCHAR guilsinglright
ENCODING 8250
SWIDTH 300 0
DWIDTH 6 0
BBX 5 7 0 0
BITMAP
C0
E0
70
38
70
E0
C0
ENDCHAR
STARTCHAR Euro
ENCODING 8364
SWIDTH 400 0
DWIDTH 8 0
BBX 7 9 0 0
BITMAP
3E
7E
60
FC
60
FC
60
7E
3E
ENDCHAR
STARTCHAR trademark
ENCODING 8482
SWIDTH 600 0
DWIDTH 12 0
BBX 11 6 0 1
BITMAP
F820
FC60
6EE0
6FE0
6D60
6C60
ENDCHAR
STARTCHAR .notdef
ENCODING -1
SWIDTH 350 0
DWIDTH 7 0
BBX 1 1 0 0
BITMAP
00
ENDCHAR
STARTCHAR .null
ENCODING -1
SWIDTH 0 0
DWIDTH 0 0
BBX 1 1 0 0
BITMAP
00
ENDCHAR
STARTCHAR nonmarkingreturn
ENCODING -1
SWIDTH 350 0
DWIDTH 7 0
BBX 1 1 0 0
BITMAP
00
ENDCHAR
ENDFONT
